<?xml version="1.0" encoding="UTF-8"?>
<!-- Generator: Adobe Illustrator 22.1.0, SVG Export Plug-In . SVG Version: 6.00 Build 0)  -->
<svg version="1.1" id="Laag_1" xmlns="http://www.w3.org/2000/svg" xmlns:xlink="http://www.w3.org/1999/xlink" x="0px" y="0px" viewBox="0 0 810.7 323.3" style="enable-background:new 0 0 810.7 323.3;" xml:space="preserve">
<style type="text/css">
	.st0{clip-path:url(#SVGID_2_);fill:#00458B;}
	.st1{clip-path:url(#SVGID_2_);fill:#00A0A2;}
	.st2{fill:#00A0A2;}
	.st3{clip-path:url(#SVGID_4_);fill:#00A0A2;}
	.st4{clip-path:url(#SVGID_6_);fill:#00A0A2;}
	.st5{clip-path:url(#SVGID_8_);fill:#00A0A2;}
	.st6{clip-path:url(#SVGID_8_);fill:#FFFFFF;}
	.st7{fill:#FFFFFF;}
	.st8{clip-path:url(#SVGID_10_);fill:#FFFFFF;}
	.st9{clip-path:url(#SVGID_12_);fill:#FFFFFF;}
	.st10{clip-path:url(#SVGID_14_);fill:#FFFFFF;}
	.st11{clip-path:url(#SVGID_14_);fill:#00458B;}
	.st12{clip-path:url(#SVGID_14_);fill:#00A0A2;}
</style>
<g>
	<defs>
		<rect id="SVGID_1_" width="810.7" height="292"/>
	</defs>
	<clipPath id="SVGID_2_">
		<use xlink:href="#SVGID_1_" style="overflow:visible;"/>
	</clipPath>
	<path class="st0" d="M610.1,211.8c0,0,11.1-22.3,13.5-27.3c-7.3-6.4-17.7-15.4-32.9-28.7v45.3l-57.7,5.4v-1   c-0.9,0.2-14.1,2.8-14.1,2.8s-9.4-19.8-13-27.3h-27.2c-3.5,7.5-12.9,27.4-12.9,27.4s-24.1-5.1-27.4-5.8c-3.6,0.3-33.5,3.1-37.5,3.5   v17.2c0,0-55-47.8-77.9-67.7v45.4l-57.7,5.4v-15c-13,9.5-29,14.9-46.1,14.9c-10.4,0-20.6-2.2-30-6.2c0.4,1.9,2.6,13.7,2.6,13.7   l-38.3,4.7V292h505.6v-72.7L610.1,211.8z"/>
	<path class="st1" d="M207.3,246.9c-3.3-0.8-7.8-1.6-11.1-1.6c-2.7,0-6.4,0-6.4,2.2c0,3.4,20.4,3.1,20.4,16.5   c0,9.5-8.8,14.5-23.4,14.5c-5.1,0-8.5-0.6-12.9-1.3v-12.3c4.3,0.8,8.8,1.3,12.9,1.3c4.3,0,6.3-0.6,6.3-2.3   c0-4.1-19.8-2.6-19.8-16.3c0-9.4,8.6-14.1,20.1-14.1c4.7,0,9.9,0.4,13.7,1.1V246.9z"/>
</g>
<polygon class="st2" points="216.6,234.4 232.5,234.4 247.5,255 247.6,255 247.6,234.4 263.3,233.3 263.3,277.5 247.9,277.5   232.5,256.7 232.3,256.7 232.3,277.5 216.6,278.5 "/>
<g>
	<defs>
		<rect id="SVGID_3_" width="810.7" height="292"/>
	</defs>
	<clipPath id="SVGID_4_">
		<use xlink:href="#SVGID_3_" style="overflow:visible;"/>
	</clipPath>
	<path class="st3" d="M324.4,255.9c0,11-9.4,22.6-27.8,22.6c-18.3,0-27.8-11.6-27.8-22.6c0-11,9.4-22.6,27.8-22.6   C314.9,233.3,324.4,244.9,324.4,255.9 M285.2,255.9c0,5,4.2,9.9,11.4,9.9s11.4-4.8,11.4-9.9s-4.2-9.9-11.4-9.9   S285.2,250.9,285.2,255.9"/>
</g>
<polygon class="st2" points="363.7,277.5 357.3,254.7 357.2,254.7 351.1,277.5 336.4,277.5 325,234.4 341.1,233.3 346.8,255   346.9,255 352.4,234.4 362.5,234.4 368.2,255.3 368.3,255.3 374,233.3 389.9,234.4 378.2,277.5 "/>
<g>
	<defs>
		<rect id="SVGID_5_" width="810.7" height="292"/>
	</defs>
	<clipPath id="SVGID_6_">
		<use xlink:href="#SVGID_5_" style="overflow:visible;"/>
	</clipPath>
	<path class="st4" d="M426.5,277.5c-2.9,0.7-6.3,1-9.6,1c-14.6,0-26.6-9.1-26.6-22.2c0-13.3,11.2-22.9,27.8-22.9   c2.9,0,5.1,0.4,7.3,0.9l2.7,13.5c-3-1.1-5-1.6-8.5-1.6c-7.5,0-13,3.5-13,9.9c0,6.1,6,9.9,12.7,9.9c3.8,0,6.4-0.6,9.3-2L426.5,277.5   z"/>
</g>
<polygon class="st2" points="434.2,277.5 434.2,234.4 463,234.4 466.2,245.9 450.6,245.9 450.6,250.2 460.8,250.2 460.8,260.9   450.6,260.9 450.6,265.5 467.3,265.5 464,277.5 "/>
<polygon class="st2" points="472.3,234.4 488.2,234.4 503.2,255 503.3,255 503.3,234.4 519,233.3 519,277.5 503.6,277.5   488.2,256.7 488,256.7 488,277.5 472.3,278.5 "/>
<polygon class="st2" points="525.8,234.4 559.6,234.4 559.6,247.1 550,247.1 550,277.5 533.6,278.5 533.6,247.1 522.3,247.1 "/>
<polygon class="st2" points="564.1,277.5 564.1,234.4 592.9,234.4 596.1,245.9 580.5,245.9 580.5,250.2 590.7,250.2 590.7,260.9   580.5,260.9 580.5,265.5 597.3,265.5 593.9,277.5 "/>
<g>
	<defs>
		<rect id="SVGID_7_" width="810.7" height="292"/>
	</defs>
	<clipPath id="SVGID_8_">
		<use xlink:href="#SVGID_7_" style="overflow:visible;"/>
	</clipPath>
	<path class="st5" d="M602.3,234.4h19.4c13.8,0,19.3,6.7,19.3,14.1c0,4.7-2.4,8.4-7.5,10.4l9.6,18.7l-17,1l-8.1-18.2h-0.3v17.2   l-15.4,1V234.4z M617.6,256.9h2c3.8,0,5.4-2.1,5.4-5.2c0-3-1.7-5.1-5.4-5.1h-2V256.9z"/>
	<path class="st6" d="M204,244.3c-3.3-0.8-7.8-1.6-11.1-1.6c-2.7,0-6.4,0-6.4,2.2c0,3.4,20.4,3.1,20.4,16.5   c0,9.5-8.8,14.5-23.4,14.5c-5.1,0-8.5-0.6-12.9-1.3v-12.3c4.3,0.8,8.8,1.3,12.9,1.3c4.3,0,6.3-0.6,6.3-2.3   c0-4.1-19.8-2.6-19.8-16.3c0-9.4,8.6-14.1,20.1-14.1c4.7,0,9.9,0.4,13.7,1.1V244.3z"/>
</g>
<polygon class="st7" points="213.3,231.8 229.2,231.8 244.2,252.4 244.3,252.4 244.3,231.8 260,230.8 260,274.9 244.6,274.9   229.2,254.1 229,254.1 229,274.9 213.3,275.9 "/>
<g>
	<defs>
		<rect id="SVGID_9_" width="810.7" height="292"/>
	</defs>
	<clipPath id="SVGID_10_">
		<use xlink:href="#SVGID_9_" style="overflow:visible;"/>
	</clipPath>
	<path class="st8" d="M321.1,253.4c0,11-9.4,22.6-27.8,22.6c-18.3,0-27.8-11.6-27.8-22.6c0-11,9.4-22.6,27.8-22.6   C311.6,230.8,321.1,242.4,321.1,253.4 M281.9,253.4c0,5,4.2,9.9,11.4,9.9c7.2,0,11.4-4.8,11.4-9.9c0-5-4.2-9.9-11.4-9.9   C286.1,243.5,281.9,248.3,281.9,253.4"/>
</g>
<polygon class="st7" points="360.4,274.9 354,252.1 353.9,252.1 347.8,274.9 333.1,274.9 321.7,231.8 337.8,230.8 343.5,252.5   343.6,252.5 349.1,231.8 359.2,231.8 364.9,252.7 365,252.7 370.7,230.8 386.6,231.8 374.9,274.9 "/>
<g>
	<defs>
		<rect id="SVGID_11_" width="810.7" height="292"/>
	</defs>
	<clipPath id="SVGID_12_">
		<use xlink:href="#SVGID_11_" style="overflow:visible;"/>
	</clipPath>
	<path class="st9" d="M423.2,274.9c-2.9,0.7-6.3,1-9.6,1c-14.6,0-26.6-9.1-26.6-22.2c0-13.3,11.2-22.9,27.8-22.9   c2.9,0,5.1,0.4,7.3,0.9l2.7,13.5c-3-1.1-5-1.6-8.5-1.6c-7.5,0-13,3.5-13,9.9c0,6.1,6,9.9,12.7,9.9c3.8,0,6.4-0.6,9.3-2L423.2,274.9   z"/>
</g>
<polygon class="st7" points="430.9,274.9 430.9,231.8 459.7,231.8 462.9,243.4 447.3,243.4 447.3,247.6 457.5,247.6 457.5,258.4   447.3,258.4 447.3,263 464,263 460.7,274.9 "/>
<polygon class="st7" points="469,231.8 484.9,231.8 499.9,252.4 500,252.4 500,231.8 515.7,230.8 515.7,274.9 500.3,274.9   484.9,254.1 484.7,254.1 484.7,274.9 469,275.9 "/>
<polygon class="st7" points="522.5,231.8 556.3,231.8 556.3,244.5 546.7,244.5 546.7,274.9 530.3,275.9 530.3,244.5 519,244.5 "/>
<polygon class="st7" points="560.8,274.9 560.8,231.8 589.6,231.8 592.8,243.4 577.2,243.4 577.2,247.6 587.4,247.6 587.4,258.4   577.2,258.4 577.2,263 594,263 590.7,274.9 "/>
<g>
	<defs>
		<rect id="SVGID_13_" width="810.7" height="292"/>
	</defs>
	<clipPath id="SVGID_14_">
		<use xlink:href="#SVGID_13_" style="overflow:visible;"/>
	</clipPath>
	<path class="st10" d="M599,231.8h19.4c13.8,0,19.3,6.7,19.3,14.1c0,4.6-2.4,8.4-7.5,10.4l9.6,18.7l-17,1l-8.2-18.2h-0.3v17.2   l-15.4,1V231.8z M614.3,254.4h2c3.8,0,5.4-2.1,5.4-5.2c0-3-1.7-5.1-5.4-5.1h-2V254.4z"/>
	<path class="st10" d="M31.3,42.3L0,214l57,7.2c0,0,4.6-31,7.1-47.8c9.5,19.2,31.9,64.3,31.9,64.3s21.7-45.1,30.8-64   c2.6,16.7,7.5,47.5,7.5,47.5l57.6-7.1c0,0-2.2-11.7-2.6-13.7c9.4,3.9,19.6,6.2,30.1,6.2c17.1,0,33.1-5.5,46.1-14.9v15l57.7-5.4   v-45.4c22.9,19.9,77.9,67.7,77.9,67.7v-17.2c4-0.4,33.8-3.2,37.4-3.5c3.3,0.7,27.5,5.8,27.5,5.8s9.3-19.9,12.9-27.4H506   c3.6,7.5,13,27.3,13,27.3s13.2-2.7,14.1-2.9v1l57.7-5.4v-45.3c15.2,13.3,25.6,22.4,32.9,28.7c-2.4,5-13.5,27.3-13.5,27.3l60.8,9.2   c0,0,13.8-30.1,18.5-40.3h40.8c4.8,10.2,19,40.3,19,40.3l61.5-9.2L708.3,13.5c0,0-26,52.6-39.6,80.1V52.8L611,58.2v45.8   c-22.9-19.5-77.9-66.3-77.9-66.3V113c-14-25.7-40.6-74.4-40.6-74.4S485.9,51,482.7,57H401v-4.2l-57.7,5.4v45.8   c-22.9-19.5-77.9-66.3-77.9-66.3v31.4c-13-9.5-29-14.9-46.1-14.9c-20.3,0-39.3,8-53.4,21.2c-3.1-16.6-14-75.1-14-75.1   s-42.2,86.2-56.4,115.3C81.3,86.5,39,0,39,0L31.3,42.3z M199.6,130.4c0-11,9.4-20.9,19.7-20.9s19.7,10,19.7,20.9   c0,11-9.4,20.9-19.7,20.9S199.6,141.3,199.6,130.4"/>
	<path class="st11" d="M39.3,43.8L9.5,207l40.6,5.1c0,0,6.6-44.1,9.8-65.5c10.2,20.5,36,72.6,36,72.6s24.9-51.8,34.9-72.4   c3.4,21.5,10.3,65.4,10.3,65.4l41.2-5.1c0,0-2.7-14.3-4.1-22.1c11.8,8.6,26.3,13.5,41.2,13.5c21.7,0,41.4-9.9,54.2-25.9v25.1   l41.5-3.9v-55.8c15.2,13.2,77.9,67.7,77.9,67.7V104.1h13.1v93.6c0,0,31.2-2.9,32.9-3.1c1.6,0.3,22.4,4.7,22.4,4.7   s9.9-21.1,12.3-26.3h37.4c2.5,5.1,12.5,26.2,12.5,26.2s11.6-2.4,17.6-3.6v2l41.5-3.9V138c13.4,11.7,45.8,40,51.1,44.6   c-2.6,5.2-11.3,22.9-11.3,22.9l43.8,6.6c0,0,15.5-33.7,18.2-39.5h51.1c2.7,5.7,18.6,39.5,18.6,39.5l44.3-6.6l-89.8-174   c0,0-33.7,68-47.9,96.8V61.7l-41.5,3.9v56c-15.1-12.9-77.9-66.3-77.9-66.3v89.5c-14.2-26.1-48.6-89.2-48.6-89.2   S479.9,79.3,476,86.5V65.1h-83.1v-3.4l-41.5,3.9v56c-15.1-12.9-77.9-66.3-77.9-66.3v32.9c-12.8-16-32.5-25.9-54.2-25.9   c-23.9,0-45.7,12.3-58.2,31.3c-3.7-19.6-12.7-67.8-12.7-67.8S104.2,116.3,95.5,134c-8.6-17.7-53-108.3-53-108.3L39.3,43.8z    M191.5,130.4c0-15.5,13-29,27.8-29c14.8,0,27.8,13.6,27.8,29s-13,29-27.8,29C204.5,159.4,191.5,145.9,191.5,130.4 M466.6,104.1   c-9.2,17.2-12.5,23.3-19.1,35.6v-35.6H466.6z M492.6,128.7c2.5,4.6,3.2,5.9,5.6,10.3H487C489.4,134.6,490.1,133.3,492.6,128.7    M708.9,114.8c3.7,8.6,5.7,13.4,8.4,19.8H701C703.5,128.2,705.4,123.5,708.9,114.8"/>
	<path class="st12" d="M709,44.9h-0.4l-54.1,109.2V68.4l-29.4,2.8v63.6l-77.6-66.4h-0.3v100.2L492.6,68.4l-51.1,95.4V98.1H470v-27   h-80.9l-2.2,8.1V68.4l-29.4,2.8v63.6l-77.9-66.4v43.2c-8.2-25.2-32.3-43.2-60.3-43.2c-28.5,0-53.1,18.7-60.7,44.7l-12.7-68.2   L95.5,147.7L45.2,44.9l-28.6,157l28.4,3.6l11.6-78h0.4l38.7,78l37.6-78h0.4l12.3,78l29.1-3.6l-6.4-34.2   c11.6,15.1,30,24.8,50.6,24.8c28,0,52.1-18,60.3-43.2V191l29.4-2.8v-63.6l77.9,67.7V98.1h25.2v93l27.2-2.6l18.6,3.9l11.9-25.4h45.1   l12.1,25.4l20.2-4.1v2.7l29.4-2.8v-63.6l64.6,56.4l-9.7,19.7l31.1,4.7l17.9-38.9h58.8l18.3,38.9l31.5-4.7L709,44.9z M219.3,165.5   c-18.7,0-33.9-16.9-33.9-35.1c0-18.1,15.2-35.1,33.9-35.1c18.7,0,33.9,16.9,33.9,35.1C253.2,148.5,238,165.5,219.3,165.5    M476.9,145.1l15.7-29l15.7,29H476.9z M692,140.6L708.8,99l17.7,41.6H692z"/>
</g>
</svg>